<mxfile host="app.diagrams.net" modified="2022-02-18T10:13:55.311Z" agent="5.0 (Windows NT 10.0; Win64; x64) AppleWebKit/537.36 (KHTML, like Gecko) Chrome/98.0.4758.82 Safari/537.36" etag="kTAZkChHKucG7sVFYfH9" version="16.6.1" type="github">
  <diagram id="a2a4jb19CR6dUdZn-9Eb" name="Page-1">
    <mxGraphModel dx="782" dy="1528" grid="1" gridSize="10" guides="1" tooltips="1" connect="1" arrows="1" fold="1" page="1" pageScale="1" pageWidth="850" pageHeight="1100" math="0" shadow="0">
      <root>
        <mxCell id="0" />
        <mxCell id="1" parent="0" />
        <mxCell id="i0Whe7Mssrt0_K8Z1QNL-1" value="&lt;font style=&quot;font-size: 10px&quot;&gt;&lt;font face=&quot;Tahoma&quot;&gt;&lt;b&gt;&lt;u&gt;ARCH DOC TOOLS&lt;/u&gt;&lt;/b&gt;&lt;br&gt;&lt;/font&gt;&lt;span style=&quot;font-family: &amp;#34;tahoma&amp;#34;&quot;&gt;Draw.io (this)&lt;/span&gt;&lt;br&gt;&lt;span style=&quot;font-family: &amp;#34;tahoma&amp;#34;&quot;&gt;LucdChart&lt;/span&gt;&lt;br&gt;&lt;span style=&quot;font-family: &amp;#34;tahoma&amp;#34;&quot;&gt;https://bit.ly/3BzoAPQ&lt;/span&gt;&lt;/font&gt;" style="rounded=0;whiteSpace=wrap;html=1;" parent="1" vertex="1">
          <mxGeometry x="20" y="-1050" width="120" height="90" as="geometry" />
        </mxCell>
        <mxCell id="i0Whe7Mssrt0_K8Z1QNL-2" value="&lt;h3&gt;&lt;b&gt;AI ML DATA DESIGN/LANDSCAPE&lt;/b&gt;&lt;/h3&gt;" style="rounded=0;whiteSpace=wrap;html=1;fontFamily=Tahoma;fontSize=10;" parent="1" vertex="1">
          <mxGeometry x="323" y="-1080" width="205" height="20" as="geometry" />
        </mxCell>
      </root>
    </mxGraphModel>
  </diagram>
</mxfile>
